<?xml version="1.0" encoding="UTF-8" standalone="no"?>
<svg
   xmlns:dc="http://purl.org/dc/elements/1.1/"
   xmlns:cc="http://creativecommons.org/ns#"
   xmlns:rdf="http://www.w3.org/1999/02/22-rdf-syntax-ns#"
   xmlns:svg="http://www.w3.org/2000/svg"
   xmlns="http://www.w3.org/2000/svg"
   xmlns:sodipodi="http://sodipodi.sourceforge.net/DTD/sodipodi-0.dtd"
   xmlns:inkscape="http://www.inkscape.org/namespaces/inkscape"
   inkscape:version="1.0 (4035a4fb49, 2020-05-01)"
   sodipodi:docname="header.svg"
   id="svg8"
   version="1.1"
   viewBox="0 0 210.00034 34.122086"
   height="34.122086mm"
   width="210.00034mm">
  <sodipodi:namedview
     inkscape:current-layer="layer1"
     inkscape:window-maximized="1"
     inkscape:window-y="0"
     inkscape:window-x="0"
     inkscape:cy="64.482681"
     inkscape:cx="374.21079"
     inkscape:zoom="1.5459201"
     showgrid="false"
     id="namedview17"
     inkscape:window-height="1059"
     inkscape:window-width="1920"
     inkscape:pageshadow="2"
     inkscape:pageopacity="0"
     guidetolerance="10"
     gridtolerance="10"
     objecttolerance="10"
     borderopacity="1"
     bordercolor="#666666"
     pagecolor="#ffffff" />
  <defs
     id="defs2">
    <rect
       x="50.828003"
       y="7.3500075"
       width="69.055443"
       height="13.412194"
       id="rect875" />
  </defs>
  <metadata
     id="metadata5">
    <rdf:RDF>
      <cc:Work
         rdf:about="">
        <dc:format>image/svg+xml</dc:format>
        <dc:type
           rdf:resource="http://purl.org/dc/dcmitype/StillImage" />
        <dc:title></dc:title>
      </cc:Work>
    </rdf:RDF>
  </metadata>
  <g
     id="layer1">
    <g
       id="g871">
      <path
         style="display:none;fill:#e35a19;stroke:none;stroke-width:0.264583px;stroke-linecap:butt;stroke-linejoin:miter;stroke-opacity:1"
         d="m 0,7.7928797e-7 210.00034,-9.8e-13 V 34.122087 H 0 Z"
         id="path879" />
      <path
         style="fill:#01b4b8;fill-opacity:1;stroke:none;stroke-width:0.265;stroke-linecap:butt;stroke-linejoin:miter;stroke-miterlimit:4;stroke-dasharray:none;stroke-opacity:1"
         d="m 0,7.7928797e-7 210.00034,-9.8e-13 C 75.573389,9.7560057 61.34348,37.56986 0,17.269359 Z"
         id="path841" />
      <path
         style="fill:#e35a19;fill-opacity:1;stroke:none;stroke-width:0.264583px;stroke-linecap:butt;stroke-linejoin:miter;stroke-opacity:1"
         d="m 210.00034,7.7928699e-7 c 0,0 -89.3913,3.46057662071301 -126.141421,25.15927022071301 C 153.06752,4.9379665 210.00034,34.122087 210.00034,34.122087 V 7.7928699e-7"
         id="path843" />
      <path
         style="fill:#272727;fill-opacity:1;stroke:none;stroke-width:0.264583px;stroke-linecap:butt;stroke-linejoin:miter;stroke-opacity:1"
         d="M 210.00034,7.7928699e-7 V 34.122087 C 193.14968,16.135749 171.56076,2.7501433 134.34275,4.4821611 97.124743,6.2141789 63.565812,5.6308098 56.390466,7.7928822e-7 Z"
         id="path845" />
    </g>
    <g
       style="font-style:normal;font-variant:normal;font-weight:500;font-stretch:normal;font-size:11.2889px;line-height:1.25;font-family:'JetBrains Mono';-inkscape-font-specification:'JetBrains Mono Medium';letter-spacing:0px;word-spacing:0px;white-space:pre;shape-inside:url(#rect875);fill:#ffffff;fill-opacity:1;stroke:#272727;stroke-width:0;stroke-miterlimit:4;stroke-dasharray:none;stroke-dashoffset:0"
       id="text873"
       transform="translate(-43.160479,-2.1837833)"
       aria-label="Paragoumba">
      <path
         id="path842"
         style="font-style:normal;font-variant:normal;font-weight:500;font-stretch:normal;font-size:11.2889px;font-family:'JetBrains Mono';-inkscape-font-specification:'JetBrains Mono Medium';fill:#ffffff;stroke:#272727;stroke-width:0;stroke-miterlimit:4;stroke-dasharray:none;stroke-dashoffset:0"
         d="M 51.776393,17.591555 V 9.350658 h 2.698047 q 0.790223,0 1.388535,0.3048003 0.598311,0.3048003 0.9144,0.8692457 0.327379,0.564445 0.327379,1.309512 0,0.745068 -0.327379,1.309513 -0.327378,0.564445 -0.925689,0.869245 -0.587023,0.3048 -1.377246,0.3048 h -1.478846 v 3.273781 z M 54.47444,13.23404 q 0.632178,0 1.004712,-0.383823 0.383823,-0.383822 0.383823,-1.016001 0,-0.632178 -0.383823,-1.016001 -0.372534,-0.383823 -1.004712,-0.383823 h -1.478846 v 2.799648 z" />
      <path
         id="path844"
         style="font-style:normal;font-variant:normal;font-weight:500;font-stretch:normal;font-size:11.2889px;font-family:'JetBrains Mono';-inkscape-font-specification:'JetBrains Mono Medium';fill:#ffffff;stroke:#272727;stroke-width:0;stroke-miterlimit:4;stroke-dasharray:none;stroke-dashoffset:0"
         d="m 61.033274,11.28106 q 1.12889,0 1.772357,0.553156 0.643467,0.553156 0.643467,1.512713 v 4.244626 h -1.185334 v -1.140179 h -0.01129 q -0.07902,0.575734 -0.609601,0.914401 -0.519289,0.338667 -1.298223,0.338667 -0.948268,0 -1.512713,-0.496711 -0.553156,-0.508001 -0.553156,-1.354668 0,-0.903112 0.587023,-1.411113 0.587023,-0.508 1.63689,-0.508 h 1.727202 v -0.564445 q 0,-0.508001 -0.316089,-0.778935 -0.316089,-0.282222 -0.903112,-0.282222 -0.519289,0 -0.846668,0.214489 -0.316089,0.2032 -0.383822,0.575734 h -1.196624 q 0.1016,-0.82409 0.767646,-1.320801 0.666045,-0.496712 1.682047,-0.496712 z m -0.338667,5.486406 q 0.688623,0 1.106312,-0.31609 0.428978,-0.327378 0.428978,-0.869245 V 14.76933 h -1.704624 q -0.474134,0 -0.756356,0.270934 -0.270934,0.259645 -0.270934,0.711201 0,0.474133 0.31609,0.745067 0.327378,0.270934 0.880534,0.270934 z" />
      <path
         id="path846"
         style="font-style:normal;font-variant:normal;font-weight:500;font-stretch:normal;font-size:11.2889px;font-family:'JetBrains Mono';-inkscape-font-specification:'JetBrains Mono Medium';fill:#ffffff;stroke:#272727;stroke-width:0;stroke-miterlimit:4;stroke-dasharray:none;stroke-dashoffset:0"
         d="m 68.371042,11.269771 q 0.993423,0 1.569157,0.62089 0.587023,0.6096 0.587023,1.682046 v 0.417689 h -1.253068 v -0.316089 q 0,-0.654756 -0.338667,-1.016001 -0.327378,-0.361245 -0.92569,-0.361245 -0.598312,0 -0.936979,0.361245 -0.327378,0.361245 -0.327378,1.016001 v 3.917248 H 65.526239 V 11.38266 h 1.174046 v 1.162757 q 0.293511,-1.275646 1.670757,-1.275646 z" />
      <path
         id="path848"
         style="font-style:normal;font-variant:normal;font-weight:500;font-stretch:normal;font-size:11.2889px;font-family:'JetBrains Mono';-inkscape-font-specification:'JetBrains Mono Medium';fill:#ffffff;stroke:#272727;stroke-width:0;stroke-miterlimit:4;stroke-dasharray:none;stroke-dashoffset:0"
         d="m 74.57992,11.28106 q 1.12889,0 1.772357,0.553156 0.643468,0.553156 0.643468,1.512713 v 4.244626 H 75.81041 v -1.140179 h -0.01129 q -0.07902,0.575734 -0.6096,0.914401 -0.51929,0.338667 -1.298224,0.338667 -0.948268,0 -1.512713,-0.496711 -0.553156,-0.508001 -0.553156,-1.354668 0,-0.903112 0.587023,-1.411113 0.587023,-0.508 1.636891,-0.508 h 1.727201 v -0.564445 q 0,-0.508001 -0.316089,-0.778935 -0.316089,-0.282222 -0.903112,-0.282222 -0.519289,0 -0.846667,0.214489 -0.31609,0.2032 -0.383823,0.575734 h -1.196623 q 0.1016,-0.82409 0.767645,-1.320801 0.666045,-0.496712 1.682046,-0.496712 z m -0.338667,5.486406 q 0.688623,0 1.106312,-0.31609 0.428978,-0.327378 0.428978,-0.869245 V 14.76933 h -1.704624 q -0.474133,0 -0.756356,0.270934 -0.270934,0.259645 -0.270934,0.711201 0,0.474133 0.31609,0.745067 0.327378,0.270934 0.880534,0.270934 z" />
      <path
         id="path850"
         style="font-style:normal;font-variant:normal;font-weight:500;font-stretch:normal;font-size:11.2889px;font-family:'JetBrains Mono';-inkscape-font-specification:'JetBrains Mono Medium';fill:#ffffff;stroke:#272727;stroke-width:0;stroke-miterlimit:4;stroke-dasharray:none;stroke-dashoffset:0"
         d="m 82.538577,11.38266 h 1.196624 v 6.321784 q 0,0.891823 -0.575734,1.399824 -0.564445,0.519289 -1.557868,0.519289 H 79.682486 V 18.57369 h 1.907824 q 0.936979,0 0.936979,-0.891824 v -0.620889 l 0.03387,-0.914401 H 82.44827 q -0.124178,0.508001 -0.541867,0.790223 -0.4064,0.270934 -1.038579,0.270934 -0.936978,0 -1.490135,-0.632179 -0.553156,-0.632178 -0.553156,-1.715913 v -1.253068 q 0,-1.072445 0.553156,-1.704624 0.553157,-0.632178 1.490135,-0.632178 0.632179,0 1.038579,0.282223 0.417689,0.270933 0.541867,0.778934 h 0.112889 z m -0.01129,2.291647 q 0,-0.632179 -0.338667,-0.982134 -0.327379,-0.361245 -0.903112,-0.361245 -0.598312,0 -0.92569,0.349956 -0.316089,0.338667 -0.316089,0.993423 v 1.12889 q 0,0.654756 0.316089,1.004712 0.327378,0.349956 0.92569,0.349956 0.575733,0 0.903112,-0.349956 0.338667,-0.361245 0.338667,-1.004712 z" />
      <path
         id="path852"
         style="font-style:normal;font-variant:normal;font-weight:500;font-stretch:normal;font-size:11.2889px;font-family:'JetBrains Mono';-inkscape-font-specification:'JetBrains Mono Medium';fill:#ffffff;stroke:#272727;stroke-width:0;stroke-miterlimit:4;stroke-dasharray:none;stroke-dashoffset:0"
         d="m 88.08141,17.704444 q -1.151467,0 -1.817513,-0.643467 -0.666045,-0.654756 -0.666045,-1.761068 v -1.625602 q 0,-1.106312 0.666045,-1.74978 0.666046,-0.654756 1.817513,-0.654756 1.151468,0 1.817513,0.643467 0.666045,0.643468 0.666045,1.74978 v 1.636891 q 0,1.106312 -0.666045,1.761068 -0.666045,0.643467 -1.817513,0.643467 z m 0,-1.072445 q 0.609601,0 0.936979,-0.338667 0.327378,-0.338667 0.327378,-0.993423 v -1.625602 q 0,-0.654756 -0.327378,-0.993423 -0.327378,-0.338667 -0.936979,-0.338667 -0.6096,0 -0.936978,0.338667 -0.327378,0.338667 -0.327378,0.993423 v 1.625602 q 0,0.654756 0.327378,0.993423 0.327378,0.338667 0.936978,0.338667 z" />
      <path
         id="path854"
         style="font-style:normal;font-variant:normal;font-weight:500;font-stretch:normal;font-size:11.2889px;font-family:'JetBrains Mono';-inkscape-font-specification:'JetBrains Mono Medium';fill:#ffffff;stroke:#272727;stroke-width:0;stroke-miterlimit:4;stroke-dasharray:none;stroke-dashoffset:0"
         d="m 94.843445,17.704444 q -1.12889,0 -1.794936,-0.643467 -0.654756,-0.654756 -0.654756,-1.772357 v -3.90596 h 1.219201 v 3.894671 q 0,0.643467 0.327379,1.004712 0.327378,0.361245 0.903112,0.361245 0.587022,0 0.9144,-0.361245 0.338668,-0.361245 0.338668,-1.004712 V 11.38266 h 1.219201 v 3.90596 q 0,1.117601 -0.677334,1.772357 -0.666045,0.643467 -1.794935,0.643467 z" />
      <path
         id="path856"
         style="font-style:normal;font-variant:normal;font-weight:500;font-stretch:normal;font-size:11.2889px;font-family:'JetBrains Mono';-inkscape-font-specification:'JetBrains Mono Medium';fill:#ffffff;stroke:#272727;stroke-width:0;stroke-miterlimit:4;stroke-dasharray:none;stroke-dashoffset:0"
         d="m 103.11819,11.269771 q 0.56445,0 0.90311,0.440267 0.33867,0.428978 0.33867,1.151468 v 4.730049 h -1.09502 v -4.673604 q 0,-0.361245 -0.15805,-0.553157 -0.14675,-0.2032 -0.42898,-0.2032 -0.28222,0 -0.44026,0.191912 -0.14676,0.191911 -0.14676,0.553156 v 4.684893 h -0.9144 v -4.673604 q 0,-0.361245 -0.15804,-0.553157 -0.15805,-0.2032 -0.45156,-0.2032 -0.56445,0 -0.56445,0.745068 v 4.684893 H 98.907432 V 11.38266 h 1.027289 v 0.790223 h 0.06773 q 0.0564,-0.417689 0.32738,-0.654756 0.27094,-0.248356 0.68863,-0.248356 0.38382,0 0.64346,0.237067 0.25965,0.237067 0.36125,0.666045 h 0.0564 q 0.0564,-0.417689 0.33867,-0.654756 0.28222,-0.248356 0.69991,-0.248356 z" />
      <path
         id="path858"
         style="font-style:normal;font-variant:normal;font-weight:500;font-stretch:normal;font-size:11.2889px;font-family:'JetBrains Mono';-inkscape-font-specification:'JetBrains Mono Medium';fill:#ffffff;stroke:#272727;stroke-width:0;stroke-miterlimit:4;stroke-dasharray:none;stroke-dashoffset:0"
         d="m 108.85294,11.269771 q 0.93697,0 1.47884,0.632178 0.55316,0.632179 0.55316,1.715913 v 1.74978 q 0,1.072445 -0.55316,1.704624 -0.54187,0.632178 -1.47884,0.632178 -0.69992,0 -1.14018,-0.338667 -0.42898,-0.349956 -0.51929,-0.959556 h -0.0226 v 1.185334 h -1.20791 V 9.350658 h 1.2192 v 1.772357 l -0.0339,1.44498 h 0.0452 q 0.0903,-0.598312 0.53058,-0.948268 0.44026,-0.349956 1.12889,-0.349956 z m 0.8128,2.404536 q 0,-0.654756 -0.32738,-0.993423 -0.31609,-0.349956 -0.9144,-0.349956 -0.57574,0 -0.9144,0.361245 -0.32738,0.349955 -0.32738,0.982134 v 1.625602 q 0,0.632178 0.32738,0.993423 0.33866,0.349956 0.9144,0.349956 0.59831,0 0.9144,-0.338667 0.32738,-0.349956 0.32738,-1.004712 z" />
      <path
         id="path860"
         style="font-style:normal;font-variant:normal;font-weight:500;font-stretch:normal;font-size:11.2889px;font-family:'JetBrains Mono';-inkscape-font-specification:'JetBrains Mono Medium';fill:#ffffff;stroke:#272727;stroke-width:0;stroke-miterlimit:4;stroke-dasharray:none;stroke-dashoffset:0"
         d="m 115.21986,11.28106 q 1.12889,0 1.77236,0.553156 0.64346,0.553156 0.64346,1.512713 v 4.244626 h -1.18533 v -1.140179 h -0.0113 q -0.079,0.575734 -0.6096,0.914401 -0.51929,0.338667 -1.29822,0.338667 -0.94827,0 -1.51272,-0.496711 -0.55315,-0.508001 -0.55315,-1.354668 0,-0.903112 0.58702,-1.411113 0.58702,-0.508 1.63689,-0.508 h 1.7272 v -0.564445 q 0,-0.508001 -0.31609,-0.778935 -0.31609,-0.282222 -0.90311,-0.282222 -0.51929,0 -0.84667,0.214489 -0.31609,0.2032 -0.38382,0.575734 h -1.19662 q 0.1016,-0.82409 0.76764,-1.320801 0.66605,-0.496712 1.68205,-0.496712 z m -0.33867,5.486406 q 0.68862,0 1.10631,-0.31609 0.42898,-0.327378 0.42898,-0.869245 V 14.76933 h -1.70462 q -0.47414,0 -0.75636,0.270934 -0.27093,0.259645 -0.27093,0.711201 0,0.474133 0.31609,0.745067 0.32738,0.270934 0.88053,0.270934 z" />
    </g>
  </g>
</svg>
